<svg width="21" height="26" viewBox="0 0 21 26" fill="none" xmlns="http://www.w3.org/2000/svg">
<path d="M11.8125 0H1.3125C0.964403 0 0.630564 0.136964 0.384422 0.380761C0.138281 0.624558 0 0.955218 0 1.3V16.9C0 17.2448 0.138281 17.5754 0.384422 17.8192C0.630564 18.063 0.964403 18.2 1.3125 18.2H7.875V20.8H10.5V18.2H7.87631V15.6H10.5V13H7.875V15.6H2.625V2.6H10.5V7.8H13.125V1.3C13.125 0.955218 12.9867 0.624558 12.7406 0.380761C12.4944 0.136964 12.1606 0 11.8125 0V0ZM7.875 9.1V10.4H10.5V7.8H9.1875C8.8394 7.8 8.50556 7.93696 8.25942 8.18076C8.01328 8.42456 7.875 8.75522 7.875 9.1ZM13.125 26H15.75V23.4H13.125V26ZM13.125 10.4H15.75V7.8H13.125V10.4ZM7.875 24.7C7.875 25.0448 8.01328 25.3754 8.25942 25.6192C8.50556 25.863 8.8394 26 9.1875 26H10.5V23.4H7.875V24.7ZM19.6875 7.8H18.375V10.4H21V9.1C21 8.75522 20.8617 8.42456 20.6156 8.18076C20.3694 7.93696 20.0356 7.8 19.6875 7.8ZM18.375 26H19.6875C20.0356 26 20.3694 25.863 20.6156 25.6192C20.8617 25.3754 21 25.0448 21 24.7V23.4H18.375V26ZM18.375 15.6H21V13H18.375V15.6ZM18.375 20.8H21V18.2H18.375V20.8Z" fill="white"/>
</svg>
