<svg width="23" height="25" viewBox="0 0 23 25" fill="none" xmlns="http://www.w3.org/2000/svg">
<path d="M21.1875 11.0469H19.1289V4.26562C19.1289 2.12529 17.3942 0.390625 15.2539 0.390625H7.74609C5.60576 0.390625 3.87109 2.12529 3.87109 4.26562V11.0469H1.8125C1.27666 11.0469 0.84375 11.4798 0.84375 12.0156V23.6406C0.84375 24.1765 1.27666 24.6094 1.8125 24.6094H21.1875C21.7233 24.6094 22.1562 24.1765 22.1562 23.6406V12.0156C22.1562 11.4798 21.7233 11.0469 21.1875 11.0469ZM12.3477 18.2217V19.8262C12.3477 19.9594 12.2387 20.0684 12.1055 20.0684H10.8945C10.7613 20.0684 10.6523 19.9594 10.6523 19.8262V18.2217C10.4024 18.0423 10.2159 17.7882 10.1196 17.496C10.0233 17.2038 10.0222 16.8886 10.1164 16.5958C10.2107 16.303 10.3954 16.0476 10.644 15.8664C10.8927 15.6852 11.1924 15.5876 11.5 15.5876C11.8076 15.5876 12.1073 15.6852 12.356 15.8664C12.6046 16.0476 12.7893 16.303 12.8836 16.5958C12.9778 16.8886 12.9767 17.2038 12.8804 17.496C12.7841 17.7882 12.5976 18.0423 12.3477 18.2217ZM16.9492 11.0469H6.05078V4.26562C6.05078 3.33018 6.81064 2.57031 7.74609 2.57031H15.2539C16.1894 2.57031 16.9492 3.33018 16.9492 4.26562V11.0469Z" fill="white"/>
</svg>
