<svg width="20" height="20" viewBox="0 0 40 40" fill="none" xmlns="http://www.w3.org/2000/svg">
<circle cx="20" cy="20" r="20" fill="#5E96FF"/>
<g clip-path="url(#clip0_0_215)">
<path d="M27.9532 12.6366C27.8003 12.5373 27.6292 12.4691 27.4499 12.436C27.2705 12.4028 27.0864 12.4053 26.908 12.4433C26.7297 12.4813 26.5605 12.5541 26.4103 12.6575C26.26 12.7609 26.1316 12.8928 26.0324 13.0459L18.25 25.0417L14.4546 21.5324C14.3207 21.4086 14.1637 21.3124 13.9927 21.2492C13.8216 21.1861 13.6397 21.1573 13.4575 21.1644C13.0894 21.1788 12.7422 21.3389 12.4921 21.6093C12.2421 21.8797 12.1097 22.2384 12.1241 22.6065C12.1385 22.9745 12.2985 23.3217 12.569 23.5718L17.5523 28.1792C17.5523 28.1792 17.6954 28.3023 17.7616 28.3454C17.9146 28.4448 18.0857 28.513 18.265 28.5462C18.4444 28.5794 18.6286 28.5769 18.807 28.5389C18.9855 28.5009 19.1547 28.4281 19.3049 28.3247C19.4552 28.2213 19.5836 28.0892 19.6829 27.9361L28.3625 14.5574C28.4618 14.4044 28.53 14.2334 28.5631 14.0541C28.5963 13.8747 28.5938 13.6906 28.5558 13.5122C28.5178 13.3339 28.445 13.1647 28.3416 13.0145C28.2382 12.8642 28.1063 12.7358 27.9532 12.6366Z" fill="white"/>
</g>
<defs>
<clipPath id="clip0_0_215">
<rect width="16.6667" height="16.6667" fill="white" transform="translate(12 12)"/>
</clipPath>
</defs>
</svg>
