<?xml version="1.0" standalone="no"?>
<!DOCTYPE svg PUBLIC "-//W3C//DTD SVG 20010904//EN"
 "http://www.w3.org/TR/2001/REC-SVG-20010904/DTD/svg10.dtd">
<svg version="1.0" xmlns="http://www.w3.org/2000/svg"
 width="602.000000pt" height="602.000000pt" viewBox="0 0 602.000000 602.000000"
 preserveAspectRatio="xMidYMid meet">
<metadata>
Created by potrace 1.14, written by Peter Selinger 2001-2017
</metadata>
<g transform="translate(0.000000,602.000000) scale(0.100000,-0.100000)"
fill="#000000" stroke="none">
<path d="M1198 5835 c-2 -1 -37 -5 -79 -9 -339 -28 -675 -236 -887 -547 -204
-301 -271 -723 -170 -1089 30 -112 119 -319 141 -328 4 -2 7 -10 7 -18 0 -8 5
-14 10 -14 6 0 10 -5 10 -11 0 -18 97 -138 164 -204 78 -77 127 -118 174 -146
20 -13 39 -26 42 -29 10 -13 117 -67 191 -97 79 -32 208 -66 294 -78 97 -14
277 -8 365 11 14 3 36 8 50 11 148 27 389 153 513 267 l48 44 142 -138 c78
-75 174 -167 212 -204 114 -109 255 -248 255 -252 0 -2 -21 -24 -47 -50 -151
-146 -472 -456 -515 -497 l-51 -48 -31 33 c-17 18 -49 46 -71 63 -22 16 -42
31 -45 34 -12 14 -176 102 -230 124 -58 24 -205 67 -255 74 -54 9 -330 9 -378
0 -187 -32 -401 -124 -532 -229 -96 -77 -170 -151 -230 -228 -233 -304 -319
-653 -259 -1045 10 -70 12 -80 14 -80 1 0 3 -8 5 -17 6 -30 36 -122 46 -140 5
-10 9 -23 9 -28 0 -21 82 -175 137 -258 52 -77 177 -215 249 -272 51 -42 93
-70 102 -70 5 0 15 -7 22 -15 30 -36 265 -131 390 -159 82 -17 249 -25 370
-16 51 4 226 48 285 72 39 16 75 30 80 31 6 1 12 4 15 7 3 3 31 19 63 35 82
42 211 141 282 216 74 79 135 154 135 167 0 6 4 12 8 14 13 5 76 116 115 204
33 75 69 184 82 249 3 17 8 41 10 55 14 69 19 135 17 235 -1 97 -7 180 -12
180 -1 0 -3 14 -5 30 -1 17 -5 44 -9 61 -5 28 -2 34 37 60 23 16 49 34 57 41
14 12 185 138 310 228 30 22 60 43 65 48 6 4 44 33 85 63 41 30 83 61 93 69 9
8 22 15 27 15 6 0 10 3 10 8 0 4 17 18 38 32 20 14 39 27 42 30 3 4 28 22 55
41 28 18 52 36 55 39 3 3 19 16 37 28 25 18 34 20 45 10 7 -7 36 -30 63 -50
28 -21 57 -43 65 -50 8 -7 32 -26 55 -42 22 -16 47 -35 55 -43 16 -15 202
-159 290 -226 30 -22 60 -46 66 -51 6 -6 22 -18 34 -26 12 -8 28 -20 34 -25
14 -13 152 -122 196 -155 77 -58 336 -260 350 -273 26 -24 242 -182 248 -182
4 0 27 -13 52 -27 58 -34 209 -85 280 -94 242 -29 481 61 686 261 67 64 134
142 134 154 0 4 -82 68 -182 141 -101 74 -184 138 -186 142 -2 4 -8 8 -12 8
-8 0 -156 106 -203 145 -9 8 -22 15 -27 15 -6 0 -10 3 -10 8 0 4 -17 18 -37
32 -42 28 -199 143 -226 165 -9 8 -19 15 -22 15 -3 0 -13 7 -22 15 -19 15
-618 455 -863 633 -131 95 -181 133 -217 162 -7 6 -15 10 -17 10 -6 0 -37 24
-61 48 -8 6 -16 12 -20 12 -4 0 -12 6 -20 13 -15 15 -469 348 -493 362 -9 6
-19 12 -22 15 -3 3 -34 27 -70 53 -36 27 -72 54 -80 60 -8 7 -31 23 -50 37
-110 77 -446 325 -448 332 -2 4 -10 8 -18 8 -8 0 -14 5 -14 10 0 6 -6 10 -14
10 -8 0 -16 4 -18 8 -1 5 -32 30 -68 56 -36 25 -78 56 -94 69 -16 12 -36 27
-44 33 -13 9 -13 20 -4 70 42 214 28 445 -39 648 -22 69 -25 74 -70 171 -91
196 -303 439 -449 515 -14 7 -27 16 -30 20 -23 30 -279 133 -365 146 -22 3
-43 8 -46 10 -14 8 -243 26 -251 19z m192 -681 c145 -41 297 -159 367 -285
135 -243 107 -531 -72 -751 -72 -88 -233 -177 -351 -194 -79 -11 -175 -7 -229
10 -5 2 -25 7 -43 11 -18 4 -35 12 -38 16 -3 5 -14 9 -25 9 -10 0 -19 5 -19
10 0 6 -5 10 -11 10 -16 0 -100 60 -139 100 -75 75 -123 157 -160 274 -32 96
-32 258 -2 361 43 144 142 278 265 358 27 17 52 32 56 32 3 0 12 4 19 8 14 9
62 25 102 33 105 23 192 22 280 -2z m-17 -3078 c233 -54 414 -248 461 -495 45
-239 -51 -487 -244 -633 -41 -31 -131 -78 -155 -82 -5 -1 -14 -4 -20 -8 -5 -3
-28 -9 -50 -13 -318 -57 -608 130 -695 449 -26 93 -30 179 -13 276 15 87 15
88 31 117 7 12 12 28 12 35 0 7 11 30 25 51 14 20 23 37 20 37 -7 0 22 35 90
107 33 34 66 63 73 63 6 0 12 4 12 8 0 6 77 51 100 57 3 1 18 7 33 13 16 7 37
12 47 12 10 0 21 3 23 8 10 15 182 14 250 -2z"/>
<path d="M5217 4814 c-1 -1 -24 -5 -51 -8 -120 -16 -333 -117 -439 -208 -12
-10 -87 -65 -167 -123 -263 -190 -385 -280 -400 -292 -8 -6 -80 -59 -160 -117
-80 -58 -150 -109 -155 -113 -51 -41 -126 -93 -135 -93 -17 0 -11 -19 13 -39
18 -16 126 -96 227 -168 13 -10 62 -46 107 -80 46 -35 87 -63 90 -63 4 0 13
-7 22 -15 9 -9 68 -53 131 -99 63 -46 127 -94 142 -105 32 -26 39 -26 66 -3
12 9 41 31 64 48 48 34 54 39 661 485 235 172 459 337 497 364 38 28 116 83
172 124 57 41 105 76 107 77 13 11 -175 214 -230 249 -9 6 -41 26 -70 46 -124
81 -266 128 -404 133 -47 1 -86 2 -88 0z"/>
</g>
</svg>
